<svg xmlns="http://www.w3.org/2000/svg" xmlns:xlink="http://www.w3.org/1999/xlink" id="Layer_1" x="0" y="0" enable-background="new 0 0 501.6 501.6" version="1.1" viewBox="0 0 501.6 501.6" xml:space="preserve"><style type="text/css">.st0{fill:#ff7043}.st1{fill:#fff}.st2{fill:#455a64}.st3{fill:#00bcd4}.st4{fill:#00a1ad}</style><path d="M501,250.8c0,4.2,0,9.4,0,13.6c-2.1,34.5-10.4,65.8-24,95.1C436.2,443,350.6,501.6,251.3,501.6	c-139,0-250.8-112.8-250.8-250.8C0.5,111.8,112.3,0,251.3,0C389.2,0,501,111.8,501,250.8z" class="st0"/><circle cx="250.3" cy="250.8" r="198.5" class="st1"/><circle cx="250.3" cy="250.8" r="147.3" class="st0"/><circle cx="250.3" cy="250.8" r="95.1" class="st1"/><ellipse cx="250.3" cy="250.7" class="st0" rx="42.8" ry="42.8"/><path d="M400.7,99.3c-6.3-6.3-17.8-6.3-24,0L239.8,236.1c-6.3,6.3-6.3,17.8,0,24l0,0c6.3,6.3,17.8,6.3,24,0l136.9-136.9	C407,117,407,105.5,400.7,99.3z" class="st2"/><polygon points="439.4 60.6 377.7 121.2 364.1 65.8 425.8 4.2" class="st3"/><polygon points="434.2 134.8 494.8 74.2 439.4 60.6 377.7 121.2" class="st4"/></svg>