<?xml version="1.0" encoding="utf-8"?>
<!-- Generator: Adobe Illustrator 22.0.1, SVG Export Plug-In . SVG Version: 6.00 Build 0)  -->
<svg version="1.1" id="Layer_1" xmlns="http://www.w3.org/2000/svg" xmlns:xlink="http://www.w3.org/1999/xlink" x="0px" y="0px"
	 viewBox="0 0 501.6 501.6" style="enable-background:new 0 0 501.6 501.6;" xml:space="preserve">
<style type="text/css">
	.st0{fill:#FF7043;}
	.st1{fill:#FFFFFF;}
	.st2{fill:#455A64;}
	.st3{fill:#00BCD4;}
	.st4{fill:#00A1AD;}
</style>
<path class="st0" d="M501,250.8c0,4.2,0,9.4,0,13.6c-2.1,34.5-10.4,65.8-24,95.1C436.2,443,350.6,501.6,251.3,501.6
	c-139,0-250.8-112.8-250.8-250.8C0.5,111.8,112.3,0,251.3,0C389.2,0,501,111.8,501,250.8z"/>
<circle class="st1" cx="250.3" cy="250.8" r="198.5"/>
<circle class="st0" cx="250.3" cy="250.8" r="147.3"/>
<circle class="st1" cx="250.3" cy="250.8" r="95.1"/>
<ellipse class="st0" cx="250.3" cy="250.7" rx="42.8" ry="42.8"/>
<path class="st2" d="M400.7,99.3c-6.3-6.3-17.8-6.3-24,0L239.8,236.1c-6.3,6.3-6.3,17.8,0,24l0,0c6.3,6.3,17.8,6.3,24,0l136.9-136.9
	C407,117,407,105.5,400.7,99.3z"/>
<polygon class="st3" points="439.4,60.6 377.7,121.2 364.1,65.8 425.8,4.2 "/>
<polygon class="st4" points="434.2,134.8 494.8,74.2 439.4,60.6 377.7,121.2 "/>
</svg>
